<?xml version="1.0" encoding="utf-8"?>
<!-- Generator: Adobe Illustrator 22.0.1, SVG Export Plug-In . SVG Version: 6.00 Build 0)  -->
<svg version="1.1" xmlns="http://www.w3.org/2000/svg" xmlns:xlink="http://www.w3.org/1999/xlink" x="0px" y="0px"
	 viewBox="0 0 300.7 79.4" style="enable-background:new 0 0 300.7 79.4;" xml:space="preserve">
<style type="text/css">
	.st0{fill:#2E3756;}
	.st1{fill:#BF2655;}
	.st2{fill:#FFFFFF;}
</style>
<g id="Warstwa_2">
</g>
<g id="hasło">
	<g>
		<path class="st0" d="M224.9,33.8c0-18.1-14.6-32.7-32.7-32.7c-18.1,0-32.7,14.6-32.7,32.7c0,0,0,0,0,0h0l0,25.9l9.8,6.5l0-9.2
			l0-23.3v0c0,0,0,0,0,0s0,0,0,0v0h0c0-12.6,10.2-22.8,22.9-22.8c12.6,0,22.8,10.2,22.9,22.8h0v0c0,0,0,0,0,0l0,0h0v0l0,23.3v2.7
			l9.8,6.5L224.9,33.8L224.9,33.8C224.9,33.8,224.9,33.8,224.9,33.8z"/>
		<path class="st0" d="M266.9,1c-18,0-32.6,14.6-32.6,32.6c0,0.2,0,0.4,0,0.6c0,5.8,0,23.2,0,28.7c0,2.5,0,6.5,0,9l9.8,6.5V75
			c0-4.9,0-9.8,0-14.8c0-0.2,0-0.8,0-0.8l0-2.6c5.9,5.7,13.9,9.3,22.8,9.3c18,0,32.6-14.6,32.6-32.6S284.9,1,266.9,1z M266.9,56.4
			c-12.6,0-22.8-10.2-22.8-22.8c0-12.6,10.2-22.8,22.8-22.8c12.6,0,22.8,10.2,22.8,22.8C289.7,46.2,279.5,56.4,266.9,56.4z"/>
		<circle class="st1" cx="49.9" cy="50" r="16.3"/>
		<path class="st1" d="M49.9,1.2c-0.2,0-0.5,0-0.7,0L33.6,16.7c0,0.2,0,0.5,0,0.7c0,9,7.3,16.3,16.3,16.3c9,0,16.3-7.3,16.3-16.3
			C66.1,8.5,58.9,1.2,49.9,1.2z"/>
		<path class="st1" d="M17.3,33.7c-0.2,0-0.5,0-0.7,0L1,49.3c0,0.2,0,0.5,0,0.7c0,9,7.3,16.3,16.3,16.3c9,0,16.3-7.3,16.3-16.3
			S26.3,33.7,17.3,33.7z"/>
		<path class="st0" d="M33.6,16.8C33.2,8.1,26.1,1.2,17.3,1.2C8.3,1.2,1,8.5,1,17.4c0,8.8,6.9,15.9,15.6,16.3L33.6,16.8z"/>
		<path class="st0" d="M117.5,1.2C99.5,1.2,85,15.7,85,33.7c0,18,14.6,32.6,32.6,32.6c11.7,0,21.9-6.1,27.6-15.3l-8.1-5.4
			c-4,6.6-11.2,11-19.5,11c-11,0-20.2-7.8-22.3-18.2h43.2v0h11.4c0.2-1.5,0.3-3,0.3-4.6C150.1,15.7,135.5,1.2,117.5,1.2z M95.4,28.2
			c2.5-9.9,11.4-17.3,22.1-17.3s19.6,7.3,22.1,17.3H95.4z"/>
	</g>
</g>
</svg>
