<svg id="svg" version="1.1" width="400" height="183.3125778331258" viewBox="0 0 400 183.3125778331258" xmlns="http://www.w3.org/2000/svg" xmlns:xlink="http://www.w3.org/1999/xlink" ><g id="svgg"><path id="path0" d="M120.000 161.432 C 120.000 161.570,120.281 161.799,120.625 161.941 C 121.889 162.462,122.321 162.704,122.904 163.221 L 123.500 163.750 123.168 171.206 C 122.740 180.802,122.520 181.760,120.542 182.606 C 119.441 183.077,119.955 183.167,123.750 183.167 C 127.607 183.167,128.039 183.084,126.755 182.594 C 125.233 182.013,124.832 181.066,124.842 178.083 C 124.852 175.565,125.256 166.522,125.364 166.414 C 125.408 166.370,125.959 167.439,126.587 168.792 C 127.215 170.144,128.173 172.188,128.717 173.333 C 129.260 174.479,129.913 175.867,130.168 176.417 C 133.674 183.986,133.523 183.766,134.155 182.243 L 134.537 181.320 133.912 179.868 C 133.568 179.070,133.189 178.188,133.068 177.908 C 132.666 176.975,131.880 175.270,130.935 173.282 C 130.421 172.200,130.000 171.290,130.000 171.260 C 130.000 171.231,129.524 170.204,128.941 168.978 C 128.359 167.753,127.331 165.560,126.657 164.107 C 125.983 162.653,125.353 161.440,125.257 161.412 C 124.491 161.187,120.000 161.204,120.000 161.432 M146.500 161.325 L 144.583 161.417 144.623 162.250 C 144.645 162.708,144.856 167.508,145.092 172.917 C 145.328 178.325,145.551 182.844,145.589 182.958 C 145.664 183.190,150.335 183.272,150.331 183.042 C 150.330 182.973,149.938 182.729,149.461 182.500 C 148.476 182.027,147.794 180.948,147.513 179.417 C 147.302 178.271,146.779 166.856,146.871 165.417 C 146.983 163.670,147.855 162.373,149.185 161.975 C 150.143 161.688,150.102 161.154,149.125 161.200 C 148.735 161.218,147.554 161.274,146.500 161.325 M162.667 161.455 C 162.667 161.662,162.897 161.871,163.345 162.068 C 165.239 162.904,165.419 163.796,165.406 172.250 C 165.392 180.870,165.221 181.732,163.359 182.572 C 162.234 183.079,162.534 183.178,165.042 183.130 L 167.417 183.083 167.456 172.417 C 167.478 166.550,167.441 161.667,167.373 161.564 C 167.125 161.191,162.667 161.087,162.667 161.455 M173.624 161.292 L 168.498 161.338 168.540 172.211 L 168.583 183.083 174.875 183.127 C 180.069 183.163,181.167 183.131,181.167 182.946 C 181.167 182.822,181.466 181.790,181.832 180.652 C 182.615 178.219,182.601 178.330,182.125 178.345 C 181.866 178.353,181.514 178.674,180.989 179.383 C 180.076 180.613,179.246 181.084,177.531 181.344 C 176.186 181.548,171.108 181.498,170.889 181.278 C 170.812 181.202,170.725 179.227,170.693 176.890 L 170.637 172.641 173.943 172.696 C 178.090 172.764,178.909 173.146,179.251 175.171 C 179.445 176.323,180.073 176.119,179.902 174.958 C 179.831 174.477,179.778 172.827,179.784 171.292 C 179.795 168.142,179.600 167.710,178.893 169.322 C 178.286 170.704,177.219 170.996,172.775 170.999 L 170.634 171.000 170.704 167.375 C 170.794 162.675,170.383 163.166,174.226 163.171 C 178.676 163.176,179.472 163.442,180.257 165.181 C 180.732 166.236,181.245 166.101,181.108 164.958 C 181.050 164.477,181.002 163.427,181.001 162.625 L 181.000 161.167 179.875 161.206 C 179.256 161.227,176.443 161.266,173.624 161.292 M194.833 161.455 C 194.833 161.670,195.008 161.865,195.314 161.992 C 197.279 162.806,197.417 163.471,197.417 172.167 C 197.417 181.153,197.386 181.295,195.154 182.868 C 194.765 183.141,194.839 183.152,197.125 183.159 L 199.500 183.167 199.500 172.250 L 199.500 161.333 198.442 161.333 C 197.860 161.333,196.810 161.285,196.108 161.226 C 194.904 161.124,194.833 161.136,194.833 161.455 M201.708 161.280 L 200.667 161.349 200.667 172.258 L 200.667 183.167 204.340 183.167 C 207.746 183.167,208.064 183.141,208.715 182.815 C 212.850 180.741,212.758 173.608,208.575 171.888 C 207.899 171.610,207.606 171.333,207.987 171.333 C 209.155 171.333,210.348 168.094,209.995 165.883 C 209.397 162.142,207.191 160.917,201.708 161.280 M227.667 161.454 C 227.667 161.673,227.843 161.866,228.165 161.999 C 230.049 162.780,230.217 163.518,230.291 171.367 C 230.375 180.232,230.138 181.579,228.333 182.500 C 227.234 183.061,227.499 183.167,230.000 183.167 L 232.333 183.167 232.333 172.250 L 232.333 161.333 231.776 161.333 C 231.469 161.333,230.419 161.284,229.443 161.225 C 227.733 161.120,227.667 161.129,227.667 161.454 M234.874 161.291 L 233.498 161.347 233.540 172.215 L 233.583 183.083 240.172 183.127 L 246.760 183.170 247.461 180.960 C 248.434 177.896,248.445 177.833,248.027 177.833 C 247.796 177.833,247.482 178.138,247.063 178.770 C 245.635 180.921,244.294 181.395,239.612 181.408 C 235.200 181.420,235.583 182.330,235.583 171.833 C 235.583 163.363,235.663 162.987,237.658 162.087 C 238.094 161.891,238.333 161.673,238.333 161.475 C 238.333 161.142,238.409 161.146,234.874 161.291 M260.167 161.478 C 260.167 161.670,260.315 161.858,260.518 161.923 C 262.463 162.540,262.715 163.567,262.793 171.182 C 262.889 180.499,262.592 181.969,260.458 182.720 C 259.587 183.027,260.301 183.173,262.458 183.130 L 264.750 183.083 264.790 172.417 C 264.812 166.550,264.774 161.667,264.706 161.565 C 264.448 161.178,260.167 161.095,260.167 161.478 M271.042 161.292 L 266.000 161.338 266.000 172.252 L 266.000 183.167 272.210 183.167 L 278.420 183.167 279.131 180.958 C 279.521 179.744,279.839 178.656,279.837 178.542 C 279.831 178.217,279.036 178.291,278.929 178.626 C 278.765 179.144,277.304 180.532,276.590 180.848 C 275.235 181.447,268.564 181.788,268.061 181.283 C 267.988 181.210,267.898 179.236,267.860 176.896 L 267.793 172.641 271.105 172.696 C 275.405 172.766,275.920 172.987,276.423 174.975 C 276.563 175.531,276.711 175.764,276.944 175.799 C 277.258 175.846,277.269 175.726,277.260 172.175 C 277.250 168.612,277.240 168.501,276.916 168.501 C 276.676 168.500,276.472 168.739,276.192 169.350 C 275.578 170.687,275.046 170.853,271.034 170.962 L 267.791 171.050 267.872 167.567 C 267.919 165.523,268.032 163.888,268.144 163.611 L 268.336 163.139 271.960 163.195 C 276.305 163.263,276.989 163.542,277.717 165.542 C 277.775 165.702,277.986 165.833,278.186 165.833 C 278.539 165.833,278.546 165.793,278.442 164.458 C 278.383 163.702,278.335 162.652,278.334 162.125 L 278.333 161.167 277.208 161.206 C 276.590 161.227,273.815 161.266,271.042 161.292 M126.833 161.564 C 126.833 161.747,131.639 172.174,134.670 178.568 C 135.354 180.011,134.985 180.567,138.517 172.763 C 140.112 169.240,141.464 166.408,141.521 166.470 C 141.636 166.594,142.052 176.167,142.048 178.591 C 142.045 180.731,141.378 182.165,140.150 182.673 C 139.238 183.051,139.670 183.167,142.000 183.167 C 144.109 183.167,144.334 183.139,144.338 182.875 C 144.351 182.055,143.471 162.338,143.400 161.875 C 143.266 160.988,141.716 161.053,141.299 161.963 C 140.331 164.076,138.898 167.218,138.545 168.000 C 138.317 168.504,137.922 169.367,137.667 169.917 C 136.577 172.270,136.167 173.197,136.167 173.303 C 136.167 173.366,135.967 173.889,135.722 174.467 L 135.276 175.518 134.405 173.687 C 133.926 172.680,133.440 171.570,133.325 171.220 C 133.210 170.870,132.909 170.171,132.655 169.667 C 132.402 169.162,131.972 168.262,131.699 167.667 C 131.198 166.570,130.029 164.046,129.209 162.292 L 128.761 161.333 127.797 161.333 C 127.087 161.333,126.833 161.394,126.833 161.564 M209.000 161.927 C 209.000 161.979,209.212 162.200,209.472 162.419 C 211.316 163.970,211.818 167.757,210.493 170.117 C 209.930 171.119,210.057 171.314,210.968 170.849 C 213.705 169.453,214.263 165.373,212.014 163.205 C 211.127 162.350,209.000 161.448,209.000 161.927 M205.878 163.433 C 207.542 164.274,208.282 166.088,207.837 168.232 C 207.467 170.014,206.240 170.914,203.912 171.110 L 202.625 171.219 202.697 167.651 C 202.793 162.914,203.360 162.161,205.878 163.433 M211.000 172.083 C 211.000 172.129,211.267 172.537,211.593 172.991 C 213.319 175.394,213.384 179.072,211.744 181.509 C 211.047 182.544,211.164 182.791,212.126 182.315 C 215.425 180.683,216.211 175.773,213.565 173.334 C 212.611 172.455,211.000 171.669,211.000 172.083 M207.167 173.176 C 210.955 174.479,210.298 180.862,206.306 181.537 C 203.332 182.039,202.677 180.910,202.670 175.267 L 202.667 172.784 204.625 172.880 C 205.702 172.933,206.846 173.066,207.167 173.176 " stroke="none" fill="#e40c7c" fill-rule="evenodd"></path><path id="path1" d="M195.336 0.125 C 195.338 0.194,195.526 0.959,195.753 1.825 C 196.480 4.594,196.344 5.095,194.478 6.503 C 192.215 8.211,192.277 8.496,194.958 8.710 C 197.567 8.918,197.885 9.062,198.251 10.192 C 198.696 11.567,199.699 13.351,199.996 13.295 C 200.233 13.249,201.196 11.511,201.895 9.865 C 202.274 8.971,202.450 8.904,204.995 8.687 C 207.751 8.452,207.798 8.216,205.437 6.442 C 203.523 5.004,203.422 4.583,204.250 1.500 C 204.745 -0.342,204.720 -0.347,202.154 1.083 C 199.801 2.395,200.181 2.395,197.809 1.083 C 195.982 0.074,195.329 -0.180,195.336 0.125 M173.079 2.433 C 172.636 2.663,171.395 3.610,170.854 4.131 C 170.727 4.253,170.502 4.304,170.354 4.246 C 167.933 3.288,166.417 2.975,166.573 3.467 C 166.625 3.631,166.916 4.506,167.219 5.409 L 167.769 7.052 167.061 7.705 C 166.423 8.293,165.333 9.776,165.333 10.056 C 165.333 10.117,166.263 10.167,167.400 10.167 L 169.467 10.167 170.525 11.833 C 171.801 13.843,171.766 13.848,172.475 11.546 L 173.044 9.699 174.938 9.141 C 177.225 8.467,177.221 8.496,175.248 7.250 L 173.665 6.250 173.769 4.314 C 173.883 2.206,173.824 2.046,173.079 2.433 M226.061 2.415 C 226.014 2.537,226.041 3.404,226.120 4.341 C 226.287 6.305,226.411 6.069,224.489 7.445 C 222.910 8.575,222.907 8.586,224.125 8.921 C 226.927 9.691,226.883 9.667,227.137 10.583 C 227.513 11.945,228.075 13.386,228.252 13.443 C 228.425 13.500,229.386 12.077,229.986 10.875 L 230.340 10.167 232.420 10.167 C 233.786 10.167,234.500 10.105,234.500 9.988 C 234.500 9.675,233.561 8.432,232.780 7.712 L 232.024 7.016 232.575 5.466 C 233.433 3.049,233.413 3.166,232.970 3.168 C 232.757 3.169,231.853 3.422,230.960 3.729 L 229.336 4.289 228.056 3.323 C 226.679 2.284,226.196 2.064,226.061 2.415 M142.392 8.375 C 142.035 8.765,141.539 9.351,141.290 9.679 L 140.839 10.275 139.211 10.065 C 137.153 9.800,137.122 9.843,138.162 11.544 L 139.024 12.955 138.496 14.102 C 137.443 16.389,137.434 16.371,139.374 15.833 C 141.032 15.374,141.042 15.376,142.250 16.500 C 143.735 17.881,143.994 17.851,144.020 16.292 C 144.053 14.262,144.074 14.224,145.641 13.328 L 147.033 12.533 146.690 12.190 C 146.501 12.001,145.814 11.685,145.162 11.487 C 143.835 11.084,143.782 11.014,143.593 9.417 C 143.354 7.389,143.322 7.362,142.392 8.375 M256.601 8.125 C 256.550 8.377,256.425 9.084,256.322 9.696 C 256.102 11.020,255.923 11.211,254.395 11.760 C 253.765 11.986,253.145 12.210,253.017 12.257 C 252.499 12.446,254.059 13.620,255.190 13.892 C 255.751 14.026,255.804 14.183,255.938 16.089 C 256.077 18.064,256.247 18.110,257.775 16.590 L 258.857 15.513 260.514 15.904 C 262.523 16.379,262.541 16.358,261.681 14.573 C 260.845 12.839,260.833 13.075,261.833 11.516 C 263.035 9.643,263.090 9.711,260.677 10.079 C 259.141 10.312,259.098 10.310,258.864 9.975 C 258.319 9.197,256.977 7.667,256.840 7.667 C 256.759 7.667,256.652 7.873,256.601 8.125 M83.833 147.667 L 83.833 148.667 200.000 148.667 L 316.167 148.667 316.167 147.667 L 316.167 146.667 200.000 146.667 L 83.833 146.667 83.833 147.667 " stroke="none" fill="#fcec04" fill-rule="evenodd"></path><path id="path2" d="M152.034 26.923 C 145.477 29.156,138.420 35.477,126.084 50.167 C 119.849 57.590,117.524 59.924,116.942 59.342 C 116.352 58.752,122.939 49.714,130.656 40.526 C 131.991 38.936,133.204 37.452,133.351 37.228 C 133.499 37.004,133.732 36.730,133.869 36.619 C 134.007 36.508,134.822 35.629,135.681 34.667 C 136.540 33.704,138.576 31.561,140.205 29.904 C 143.853 26.193,143.848 26.207,141.119 27.257 C 134.835 29.675,127.962 35.773,117.742 47.995 C 110.175 57.046,104.120 60.785,99.611 59.191 C 98.223 58.700,97.131 57.151,98.344 57.394 C 99.859 57.697,100.877 56.171,99.918 55.033 C 98.748 53.641,96.666 54.669,96.667 56.638 C 96.669 58.794,98.402 60.003,101.485 59.998 C 106.463 59.989,111.607 56.462,118.000 48.673 C 127.068 37.626,133.443 31.633,139.226 28.722 C 141.224 27.716,141.175 27.843,138.797 29.849 C 131.006 36.421,119.112 50.176,116.566 55.558 C 115.377 58.073,115.604 60.000,117.092 60.000 C 118.308 60.000,119.525 58.856,124.272 53.250 C 125.902 51.325,128.551 48.223,130.159 46.356 C 131.768 44.490,133.204 42.781,133.352 42.558 C 133.895 41.739,137.569 37.965,139.711 36.024 C 144.796 31.420,147.743 29.321,151.075 27.931 C 151.437 27.780,151.699 27.687,151.658 27.725 C 151.617 27.763,150.908 28.340,150.083 29.008 C 141.650 35.836,131.032 47.805,128.187 53.690 C 125.150 59.972,128.440 62.075,134.349 57.630 C 135.137 57.037,135.850 56.509,135.934 56.458 C 136.020 56.404,136.090 56.936,136.097 57.690 C 136.123 60.814,138.579 60.584,142.941 57.049 L 143.631 56.489 143.406 57.119 C 142.732 59.011,143.586 60.259,145.218 59.768 C 146.437 59.401,147.319 58.742,153.853 53.315 C 156.555 51.071,156.593 51.046,157.537 50.968 L 158.491 50.890 156.610 52.827 C 153.129 56.411,152.469 57.657,153.250 59.167 C 154.068 60.749,156.874 59.791,161.083 56.491 C 161.192 56.406,161.231 56.777,161.196 57.559 C 161.003 61.900,166.000 60.463,173.583 53.998 C 181.455 47.287,181.929 47.155,176.224 53.265 C 169.494 60.473,170.052 59.667,171.793 59.667 L 173.086 59.667 175.501 56.936 C 176.830 55.434,177.954 54.263,178.000 54.334 C 178.046 54.405,178.681 54.452,179.412 54.440 C 181.024 54.412,181.205 54.662,180.258 55.608 C 179.133 56.734,179.000 56.981,179.000 57.952 C 179.000 59.915,180.428 60.336,182.821 59.078 C 183.979 58.470,188.167 55.254,188.167 54.974 C 188.167 54.497,187.571 54.733,186.540 55.621 C 184.112 57.711,181.724 59.161,180.703 59.165 C 179.783 59.168,179.842 58.753,180.917 57.667 C 182.029 56.543,182.295 55.555,181.764 54.528 C 181.559 54.131,181.544 54.000,181.704 54.000 C 182.377 53.999,184.132 52.897,185.414 51.669 C 186.271 50.848,186.947 50.333,187.166 50.333 C 187.491 50.333,187.500 50.357,187.262 50.595 C 186.820 51.037,186.975 51.536,187.616 51.736 C 188.012 51.860,188.667 51.363,188.667 50.939 C 188.667 49.176,185.481 49.676,183.243 51.790 C 181.293 53.632,181.304 53.626,179.887 53.748 C 179.170 53.809,178.443 53.899,178.272 53.947 C 178.100 53.996,179.263 52.565,180.855 50.768 L 183.750 47.501 185.833 46.476 C 196.565 41.194,202.836 35.548,200.321 33.431 C 198.452 31.859,194.751 34.311,186.000 42.920 C 182.999 45.872,181.432 47.289,180.667 47.743 C 178.830 48.832,177.664 49.717,174.144 52.691 C 167.008 58.723,163.347 60.587,162.109 58.820 C 161.541 58.008,163.733 55.294,165.126 55.086 C 168.306 54.612,171.667 52.572,171.667 51.116 C 171.667 48.927,166.528 50.691,162.731 54.184 C 158.638 57.950,154.397 60.284,154.198 58.881 C 154.157 58.596,154.841 57.800,157.220 55.364 C 160.548 51.957,160.695 51.742,160.196 51.042 C 159.453 49.999,159.245 49.906,158.369 50.220 C 157.488 50.536,156.871 50.573,156.500 50.333 C 156.297 50.202,156.318 50.171,156.613 50.169 C 157.438 50.163,157.839 48.859,157.195 48.276 C 156.105 47.289,154.694 49.180,155.579 50.443 C 155.815 50.780,155.676 50.917,152.037 53.948 C 145.617 59.295,144.477 60.003,144.054 58.899 C 143.887 58.466,144.198 58.086,148.000 54.078 C 152.219 49.630,151.994 50.000,150.479 50.000 C 149.274 50.000,149.256 50.007,148.548 50.701 C 147.912 51.326,147.833 51.362,147.833 51.035 C 147.833 48.492,141.235 50.594,137.213 54.417 C 132.675 58.731,127.993 60.736,128.002 58.363 C 128.012 55.565,141.962 38.112,151.604 28.833 C 154.335 26.206,154.351 26.134,152.034 26.923 M232.427 26.680 C 223.567 27.523,215.162 31.837,212.709 36.801 C 211.182 39.889,212.494 43.165,215.550 43.899 L 216.017 44.011 214.896 45.630 C 209.386 53.585,204.060 60.847,203.444 61.243 C 203.246 61.371,202.221 61.789,201.167 62.172 C 193.221 65.060,188.478 69.179,190.276 71.631 C 192.097 74.116,196.338 71.650,203.532 63.925 L 206.149 61.114 208.035 60.495 C 211.706 59.290,217.693 55.698,217.382 54.887 C 217.245 54.529,217.041 54.620,215.866 55.558 C 213.569 57.393,211.056 58.822,208.532 59.729 C 206.971 60.290,206.865 60.280,207.397 59.625 C 209.857 56.596,215.129 49.354,217.407 45.875 C 218.441 44.294,218.565 44.167,219.061 44.167 C 221.218 44.167,224.423 42.387,226.943 39.791 C 228.781 37.896,230.251 35.675,229.837 35.419 C 229.644 35.299,229.501 35.472,228.457 37.083 C 226.450 40.183,222.976 42.805,220.073 43.413 C 219.444 43.544,218.907 43.629,218.878 43.600 C 218.707 43.429,223.046 37.289,224.389 35.802 C 228.357 31.408,233.269 28.541,238.625 27.494 C 241.658 26.901,236.806 26.264,232.427 26.680 M235.104 27.838 C 229.921 29.582,226.968 31.529,222.437 36.189 C 220.088 38.605,217.219 42.043,216.543 43.251 C 215.923 44.359,213.077 42.044,212.876 40.267 C 212.202 34.283,224.074 27.263,235.000 27.186 L 237.083 27.172 235.104 27.838 M299.989 33.381 C 297.789 34.307,294.772 36.797,288.460 42.895 C 285.157 46.087,283.853 47.234,282.793 47.881 C 280.977 48.990,279.924 49.794,276.863 52.405 C 269.361 58.806,267.817 59.867,267.158 59.073 C 266.768 58.604,267.178 58.067,270.917 54.142 C 275.233 49.612,274.993 50.000,273.479 50.000 C 272.279 50.000,272.253 50.009,271.565 50.685 L 270.868 51.369 270.754 50.850 C 270.258 48.592,264.170 50.727,260.164 54.564 C 256.231 58.331,252.667 60.210,252.667 58.516 C 252.667 58.378,254.467 56.460,256.667 54.253 C 258.867 52.047,260.667 50.187,260.667 50.121 C 260.667 50.054,260.077 50.000,259.357 50.000 L 258.047 50.000 255.899 51.697 C 254.717 52.630,252.850 54.155,251.750 55.087 C 248.090 58.187,245.317 59.700,244.687 58.942 C 244.363 58.551,244.634 58.204,246.655 56.427 C 249.406 54.008,250.301 52.673,250.112 51.269 C 249.794 48.894,246.712 49.757,242.060 53.523 C 241.956 53.608,242.021 53.371,242.206 52.997 C 243.090 51.211,242.718 49.998,241.288 50.004 C 239.885 50.010,238.034 51.061,234.868 53.650 C 227.766 59.457,227.292 59.769,226.610 59.086 C 226.159 58.635,226.517 58.160,230.275 54.226 C 232.324 52.081,234.000 50.252,234.000 50.163 C 234.000 50.072,233.466 49.999,232.792 49.999 L 231.583 49.997 230.881 50.790 L 230.179 51.583 230.173 51.046 C 230.137 48.038,220.658 51.954,218.917 55.696 C 217.741 58.220,218.858 60.371,221.011 59.731 C 221.801 59.497,225.043 57.467,225.492 56.926 C 225.784 56.575,226.065 56.596,225.915 56.958 C 225.138 58.843,225.952 60.262,227.557 59.819 C 228.452 59.572,230.248 58.302,233.417 55.676 C 238.290 51.638,241.250 49.858,241.750 50.666 C 241.915 50.934,241.528 51.378,237.581 55.445 C 235.520 57.569,233.833 59.350,233.833 59.403 C 233.833 59.457,234.420 59.500,235.136 59.500 L 236.440 59.500 238.178 57.890 C 244.175 52.334,247.397 50.127,248.842 50.586 C 249.680 50.852,249.236 51.433,245.865 54.474 C 243.624 56.496,242.977 58.154,244.000 59.254 C 245.191 60.534,247.683 59.362,252.650 55.188 L 254.750 53.422 253.629 54.712 C 251.815 56.799,251.360 58.264,252.216 59.259 C 253.064 60.245,254.762 59.716,257.586 57.586 C 258.378 56.989,259.048 56.500,259.076 56.500 C 259.103 56.500,259.088 56.838,259.041 57.252 C 258.782 59.549,260.366 60.511,262.559 59.389 C 263.303 59.008,265.830 57.261,266.375 56.750 C 266.907 56.251,266.915 56.263,266.583 57.058 C 266.087 58.246,266.319 59.543,267.079 59.832 C 268.251 60.277,269.598 59.383,276.250 53.744 C 279.502 50.987,281.398 49.491,282.351 48.931 C 282.650 48.756,280.636 51.041,277.876 54.009 C 275.117 56.978,272.895 59.465,272.939 59.536 C 272.983 59.608,273.566 59.667,274.234 59.667 L 275.449 59.667 277.783 57.042 L 280.117 54.417 281.396 54.365 C 283.653 54.274,283.735 54.410,282.333 55.917 C 279.916 58.515,281.808 60.859,285.019 59.244 C 286.693 58.402,290.497 55.427,290.499 54.958 C 290.501 54.490,290.190 54.613,289.189 55.479 C 286.848 57.503,284.111 59.166,283.120 59.167 C 282.289 59.167,282.378 58.716,283.417 57.667 C 284.529 56.543,284.795 55.555,284.264 54.528 C 284.059 54.131,284.044 54.000,284.204 54.000 C 284.877 53.999,286.632 52.897,287.914 51.669 C 288.854 50.769,289.435 50.335,289.696 50.338 C 290.039 50.343,290.050 50.363,289.792 50.513 C 289.383 50.751,289.421 51.446,289.854 51.678 C 290.439 51.991,291.000 51.633,291.000 50.946 C 291.000 48.969,288.076 49.601,285.259 52.186 C 283.722 53.598,283.702 53.607,281.812 53.801 L 280.541 53.932 283.384 50.758 C 286.468 47.314,286.643 47.164,288.500 46.352 C 294.248 43.841,301.930 38.324,303.021 35.923 C 304.030 33.699,302.426 32.354,299.989 33.381 M199.875 33.968 C 201.497 35.361,197.099 39.462,189.083 44.030 C 185.041 46.333,184.903 46.277,187.537 43.396 C 194.525 35.755,198.457 32.750,199.875 33.968 M302.375 33.966 C 304.111 35.468,298.378 40.494,290.000 44.814 L 287.583 46.060 289.238 44.238 C 296.788 35.927,300.913 32.701,302.375 33.966 M262.513 44.765 C 261.525 45.596,261.962 46.963,263.154 46.772 C 264.233 46.600,264.720 45.387,264.000 44.667 C 263.552 44.219,263.128 44.247,262.513 44.765 M146.844 50.673 C 147.952 51.265,146.302 53.534,142.583 56.529 C 137.330 60.762,134.730 60.014,139.077 55.521 C 142.519 51.965,145.630 50.023,146.844 50.673 M229.346 50.810 C 230.371 51.640,227.152 55.334,223.100 57.979 C 219.155 60.554,218.116 59.255,221.319 55.750 C 224.716 52.032,228.204 49.885,229.346 50.810 M269.844 50.673 C 271.156 51.374,268.364 54.817,264.176 57.660 C 259.474 60.853,258.441 59.115,262.617 55.037 C 266.084 51.653,268.711 50.066,269.844 50.673 M170.968 51.037 C 171.107 51.768,168.675 53.454,166.448 54.170 C 164.990 54.639,164.945 54.555,166.119 53.556 C 169.030 51.076,170.800 50.157,170.968 51.037 M202.471 62.625 C 202.335 62.785,201.558 63.704,200.743 64.667 C 195.415 70.961,192.588 72.937,191.076 71.424 C 189.234 69.583,193.726 65.658,200.722 62.994 C 202.661 62.256,202.811 62.224,202.471 62.625 M130.833 73.385 C 130.833 73.414,131.077 73.658,131.375 73.927 L 131.917 74.417 131.427 73.875 C 130.971 73.370,130.833 73.257,130.833 73.385 M378.163 82.625 L 376.583 84.250 378.208 82.670 C 379.102 81.801,379.833 81.070,379.833 81.045 C 379.833 80.924,379.631 81.116,378.163 82.625 M352.557 84.583 C 352.558 85.317,352.587 85.596,352.622 85.204 C 352.657 84.812,352.657 84.212,352.621 83.871 C 352.585 83.529,352.557 83.850,352.557 84.583 M370.906 84.042 L 370.417 84.583 370.958 84.094 C 371.463 83.638,371.577 83.500,371.448 83.500 C 371.419 83.500,371.175 83.744,370.906 84.042 M133.039 87.000 C 133.039 87.321,133.073 87.452,133.115 87.292 C 133.157 87.131,133.157 86.869,133.115 86.708 C 133.073 86.548,133.039 86.679,133.039 87.000 M367.906 87.208 L 367.417 87.750 367.958 87.260 C 368.463 86.804,368.577 86.667,368.448 86.667 C 368.419 86.667,368.175 86.910,367.906 87.208 M372.333 88.250 C 371.928 88.662,371.635 89.000,371.681 89.000 C 371.726 89.000,372.095 88.662,372.500 88.250 C 372.905 87.837,373.199 87.500,373.153 87.500 C 373.107 87.500,372.738 87.837,372.333 88.250 M366.740 88.375 L 366.250 88.917 366.792 88.427 C 367.297 87.971,367.410 87.833,367.281 87.833 C 367.252 87.833,367.009 88.077,366.740 88.375 M362.333 92.917 C 361.928 93.329,361.635 93.667,361.681 93.667 C 361.726 93.667,362.095 93.329,362.500 92.917 C 362.905 92.504,363.199 92.167,363.153 92.167 C 363.107 92.167,362.738 92.504,362.333 92.917 M133.205 93.833 C 133.205 94.154,133.240 94.285,133.282 94.125 C 133.323 93.965,133.323 93.702,133.282 93.542 C 133.240 93.381,133.205 93.513,133.205 93.833 M140.000 94.250 C 140.311 94.571,140.603 94.833,140.649 94.833 C 140.695 94.833,140.478 94.571,140.167 94.250 C 139.856 93.929,139.564 93.667,139.518 93.667 C 139.472 93.667,139.689 93.929,140.000 94.250 M360.324 95.125 L 359.750 95.750 360.375 95.176 C 360.957 94.641,361.077 94.500,360.949 94.500 C 360.922 94.500,360.640 94.781,360.324 95.125 M355.740 99.875 L 355.250 100.417 355.792 99.927 C 356.297 99.471,356.410 99.333,356.281 99.333 C 356.252 99.333,356.009 99.577,355.740 99.875 M152.583 108.000 C 152.941 108.367,153.272 108.667,153.318 108.667 C 153.363 108.667,153.108 108.367,152.750 108.000 C 152.392 107.633,152.062 107.333,152.016 107.333 C 151.970 107.333,152.225 107.633,152.583 108.000 M167.083 112.500 C 167.535 112.958,167.942 113.333,167.987 113.333 C 168.033 113.333,167.701 112.958,167.250 112.500 C 166.799 112.042,166.392 111.667,166.346 111.667 C 166.300 111.667,166.632 112.042,167.083 112.500 M360.167 113.417 C 360.478 113.737,360.770 114.000,360.815 114.000 C 360.861 114.000,360.644 113.737,360.333 113.417 C 360.022 113.096,359.730 112.833,359.685 112.833 C 359.639 112.833,359.856 113.096,360.167 113.417 M375.000 118.750 C 375.591 119.346,376.111 119.833,376.157 119.833 C 376.203 119.833,375.757 119.346,375.167 118.750 C 374.576 118.154,374.055 117.667,374.010 117.667 C 373.964 117.667,374.409 118.154,375.000 118.750 M365.833 119.583 C 366.144 119.904,366.436 120.167,366.482 120.167 C 366.528 120.167,366.311 119.904,366.000 119.583 C 365.689 119.263,365.397 119.000,365.351 119.000 C 365.305 119.000,365.522 119.263,365.833 119.583 M378.917 122.667 C 380.381 124.133,381.617 125.333,381.663 125.333 C 381.709 125.333,380.548 124.133,379.083 122.667 C 377.619 121.200,376.383 120.000,376.337 120.000 C 376.291 120.000,377.452 121.200,378.917 122.667 M352.545 121.000 C 352.545 121.412,352.578 121.581,352.618 121.375 C 352.657 121.169,352.657 120.831,352.618 120.625 C 352.578 120.419,352.545 120.587,352.545 121.000 M175.333 121.417 C 175.644 121.737,175.936 122.000,175.982 122.000 C 176.028 122.000,175.811 121.737,175.500 121.417 C 175.189 121.096,174.897 120.833,174.851 120.833 C 174.805 120.833,175.022 121.096,175.333 121.417 M165.000 121.052 C 165.000 121.081,165.244 121.325,165.542 121.594 L 166.083 122.083 165.594 121.542 C 165.138 121.037,165.000 120.923,165.000 121.052 M352.539 122.333 C 352.539 122.654,352.573 122.785,352.615 122.625 C 352.657 122.465,352.657 122.202,352.615 122.042 C 352.573 121.881,352.539 122.013,352.539 122.333 M176.833 123.052 C 176.833 123.081,177.077 123.325,177.375 123.594 L 177.917 124.083 177.427 123.542 C 176.971 123.037,176.833 122.923,176.833 123.052 M183.223 124.667 C 183.223 125.354,183.252 125.635,183.288 125.292 C 183.324 124.948,183.324 124.385,183.288 124.042 C 183.252 123.698,183.223 123.979,183.223 124.667 M170.160 126.375 C 170.850 127.111,171.000 127.243,171.000 127.118 C 171.000 127.091,170.644 126.735,170.208 126.326 L 169.417 125.583 170.160 126.375 M372.583 126.667 C 373.128 127.217,373.610 127.667,373.656 127.667 C 373.702 127.667,373.294 127.217,372.750 126.667 C 372.206 126.117,371.723 125.667,371.677 125.667 C 371.631 125.667,372.039 126.117,372.583 126.667 M383.167 126.719 C 383.167 126.748,383.410 126.991,383.708 127.260 L 384.250 127.750 383.760 127.208 C 383.304 126.703,383.167 126.590,383.167 126.719 M179.167 135.417 C 179.665 135.921,180.109 136.333,180.155 136.333 C 180.201 136.333,179.831 135.921,179.333 135.417 C 178.835 134.912,178.391 134.500,178.345 134.500 C 178.299 134.500,178.669 134.912,179.167 135.417 M4.000 153.417 C 3.595 153.829,3.301 154.167,3.347 154.167 C 3.393 154.167,3.762 153.829,4.167 153.417 C 4.572 153.004,4.865 152.667,4.819 152.667 C 4.774 152.667,4.405 153.004,4.000 153.417 " stroke="none" fill="#1c1c14" fill-rule="evenodd"></path><path id="path3" d="M73.131 73.292 C 72.625 73.871,70.256 79.907,70.426 80.182 C 70.478 80.265,70.440 80.333,70.343 80.333 C 70.246 80.333,70.167 80.414,70.167 80.513 C 70.167 80.612,69.973 81.193,69.737 81.805 C 68.985 83.751,68.780 84.313,63.331 99.333 C 60.388 107.446,57.754 114.677,57.478 115.402 C 57.201 116.127,56.965 116.858,56.952 117.027 C 56.939 117.195,56.878 117.333,56.816 117.333 C 56.754 117.333,56.652 117.540,56.589 117.792 C 56.526 118.044,56.304 118.700,56.094 119.250 C 55.760 120.128,54.974 122.260,54.005 124.917 C 53.838 125.375,53.418 126.537,53.072 127.500 C 50.825 133.746,49.095 135.481,44.833 135.761 C 43.104 135.875,42.945 135.942,43.028 136.511 C 43.113 137.101,43.300 137.112,52.636 137.078 C 61.722 137.044,61.743 137.043,61.639 136.311 C 61.587 135.944,61.492 135.910,60.250 135.817 C 55.951 135.497,55.950 134.133,60.236 121.602 C 61.486 117.945,62.530 114.833,62.555 114.685 C 62.660 114.078,63.325 112.850,63.640 112.681 C 64.289 112.334,81.559 112.438,81.962 112.792 C 82.152 112.958,82.984 114.906,83.901 117.333 C 84.785 119.671,85.594 121.771,85.698 122.000 C 85.803 122.229,85.907 122.492,85.930 122.583 C 86.006 122.890,87.358 126.405,87.467 126.579 C 87.526 126.673,87.587 126.833,87.602 126.934 C 87.617 127.035,88.191 128.572,88.876 130.350 C 90.553 134.701,90.628 135.270,89.575 135.670 C 88.977 135.897,89.052 136.676,89.690 136.845 C 90.572 137.079,105.074 137.223,105.737 137.004 C 106.665 136.698,106.560 135.933,105.583 135.881 C 99.162 135.543,98.102 134.043,90.653 114.750 C 90.263 113.742,89.695 112.288,89.389 111.521 C 89.083 110.753,88.833 110.029,88.833 109.911 C 88.833 109.794,88.611 109.203,88.340 108.599 C 88.069 107.994,87.878 107.500,87.914 107.500 C 87.951 107.500,87.790 107.069,87.556 106.542 C 87.322 106.015,86.837 104.758,86.479 103.750 C 86.121 102.742,85.756 101.767,85.667 101.583 C 85.508 101.255,84.135 97.708,83.409 95.750 C 83.205 95.200,82.269 92.763,81.328 90.333 C 80.387 87.904,79.299 85.092,78.910 84.083 C 74.477 72.590,74.197 72.069,73.131 73.292 M129.397 73.423 C 128.903 74.177,128.846 77.292,128.839 103.917 C 128.832 131.556,128.822 131.945,128.045 133.676 C 127.766 134.299,126.833 135.526,126.833 135.270 C 126.833 135.226,126.590 135.264,126.292 135.354 C 125.994 135.444,125.000 135.609,124.083 135.720 C 122.531 135.909,122.413 135.950,122.361 136.314 C 122.252 137.081,122.190 137.076,131.880 137.090 C 142.042 137.106,141.917 137.114,141.917 136.407 L 141.917 135.922 140.031 135.725 C 135.951 135.299,135.169 134.655,134.493 131.167 C 134.222 129.762,134.261 130.694,133.592 109.750 C 133.508 107.123,133.395 102.265,133.242 94.750 C 133.192 92.275,133.114 89.370,133.068 88.294 C 132.979 86.188,133.067 86.017,133.755 86.955 C 134.079 87.397,136.212 89.858,137.559 91.345 C 137.939 91.764,138.775 92.695,139.417 93.414 C 140.891 95.065,140.887 95.060,142.083 96.417 C 142.633 97.041,143.161 97.633,143.257 97.734 C 143.352 97.834,143.872 98.404,144.412 99.000 C 145.573 100.281,148.114 103.045,148.975 103.963 C 149.310 104.320,150.408 105.498,151.417 106.581 C 152.425 107.664,153.438 108.746,153.667 108.986 C 153.896 109.225,155.245 110.658,156.665 112.169 C 160.461 116.210,161.527 117.334,163.833 119.733 C 164.979 120.925,167.037 123.066,168.406 124.491 C 176.914 133.348,181.882 137.996,182.561 137.735 C 183.178 137.499,183.240 134.566,183.299 102.583 C 183.321 91.068,183.409 81.105,183.498 80.083 C 183.788 76.781,184.727 75.705,187.464 75.537 C 188.983 75.444,189.333 75.296,189.333 74.747 C 189.333 74.459,189.219 74.311,188.942 74.241 C 188.651 74.169,182.554 74.249,181.250 74.343 C 181.158 74.349,178.752 74.306,175.902 74.246 C 170.351 74.130,169.996 74.175,170.287 74.963 C 170.457 75.425,170.680 75.495,172.000 75.499 C 175.865 75.510,177.392 76.459,177.906 79.167 C 178.140 80.398,178.234 83.182,178.665 101.750 C 178.756 105.692,178.867 110.154,178.911 111.667 C 178.954 113.179,179.036 116.892,179.093 119.917 L 179.195 125.417 177.884 124.083 C 177.162 123.350,175.862 121.966,174.994 121.008 C 174.127 120.049,173.229 119.069,173.000 118.828 C 172.771 118.587,172.066 117.834,171.433 117.153 C 170.801 116.473,169.933 115.542,169.506 115.083 C 169.078 114.625,167.200 112.600,165.331 110.583 C 163.463 108.567,160.882 105.792,159.597 104.417 C 158.312 103.042,156.846 101.466,156.339 100.916 C 155.832 100.365,154.511 98.940,153.403 97.749 C 152.296 96.558,149.491 93.521,147.169 91.000 C 141.629 84.985,139.799 83.003,138.561 81.678 C 137.998 81.076,137.361 80.387,137.144 80.148 C 136.559 79.501,133.101 75.821,131.662 74.314 C 130.294 72.881,129.863 72.712,129.397 73.423 M287.126 73.279 C 286.731 73.674,285.949 75.675,282.741 84.500 C 282.124 86.196,281.399 88.183,281.129 88.917 C 280.859 89.650,280.409 90.888,280.129 91.667 C 279.163 94.357,279.019 94.755,278.496 96.167 C 278.208 96.946,277.709 98.333,277.387 99.250 C 277.066 100.167,276.479 101.779,276.083 102.833 C 275.688 103.888,274.676 106.662,273.834 109.000 C 272.993 111.337,271.933 114.263,271.479 115.500 C 271.024 116.737,270.626 117.867,270.592 118.009 C 270.559 118.152,270.406 118.564,270.252 118.926 C 270.099 119.287,269.949 119.696,269.919 119.833 C 269.852 120.148,268.234 124.694,267.133 127.667 C 264.915 133.649,263.267 135.305,259.121 135.715 C 257.118 135.913,257.082 135.924,257.034 136.345 C 256.946 137.098,257.178 137.116,266.553 137.078 C 275.719 137.042,275.742 137.040,275.639 136.311 C 275.587 135.944,275.492 135.910,274.250 135.817 C 271.141 135.586,270.462 134.296,271.406 130.417 C 271.769 128.926,276.407 114.995,277.048 113.472 C 277.467 112.475,277.219 112.500,286.750 112.500 C 296.730 112.500,296.358 112.434,296.757 114.276 C 296.805 114.497,297.470 116.256,299.172 120.667 C 299.826 122.362,300.886 125.137,301.527 126.831 C 302.168 128.526,302.743 129.951,302.805 129.998 C 302.866 130.045,302.917 130.158,302.917 130.250 C 302.917 130.342,303.247 131.297,303.650 132.373 C 304.481 134.592,304.473 135.224,303.609 135.639 C 302.990 135.936,303.038 136.672,303.688 136.844 C 304.533 137.068,318.860 137.219,319.625 137.012 C 320.752 136.707,320.691 135.869,319.542 135.857 C 315.459 135.813,313.036 134.060,310.761 129.500 C 310.327 128.629,309.869 127.724,309.744 127.489 C 309.619 127.253,308.990 125.678,308.346 123.989 C 307.702 122.299,306.719 119.754,306.163 118.333 C 305.606 116.912,304.660 114.476,304.060 112.918 C 303.461 111.361,302.923 110.011,302.865 109.918 C 302.807 109.826,302.746 109.675,302.729 109.583 C 302.692 109.380,301.098 105.195,298.636 98.833 C 297.625 96.221,296.624 93.633,296.413 93.083 C 295.108 89.691,294.763 88.805,294.366 87.833 C 294.123 87.237,293.865 86.725,293.794 86.694 C 293.723 86.663,293.699 86.582,293.741 86.514 C 293.821 86.385,292.973 84.038,292.322 82.583 C 292.116 82.125,291.924 81.627,291.895 81.476 C 291.757 80.776,288.763 73.654,288.477 73.347 C 288.087 72.928,287.506 72.899,287.126 73.279 M5.003 74.450 C 4.187 75.021,4.851 75.500,6.459 75.500 C 9.998 75.500,11.352 76.752,11.670 80.315 C 11.841 82.228,11.828 128.207,11.656 131.488 C 10.965 144.639,8.312 150.870,1.315 155.773 C -0.200 156.835,-0.502 157.833,0.693 157.833 C 2.067 157.833,10.701 151.184,13.217 148.187 C 14.948 146.125,16.806 143.173,16.377 143.164 C 16.307 143.163,16.330 143.106,16.428 143.039 C 16.892 142.721,18.106 138.717,18.487 136.250 C 19.017 132.821,19.052 131.278,19.101 109.500 C 19.144 90.151,19.240 80.212,19.394 79.083 C 19.694 76.880,20.978 75.742,23.380 75.550 C 25.013 75.420,25.735 74.887,24.958 74.385 C 24.553 74.122,5.381 74.185,5.003 74.450 M217.936 74.366 C 217.180 74.789,217.788 75.499,218.908 75.502 C 220.504 75.506,222.229 76.145,222.737 76.920 C 223.780 78.513,223.833 79.796,223.835 103.703 C 223.838 136.448,224.001 135.461,218.500 135.873 C 217.839 135.923,217.613 136.443,218.083 136.833 C 218.432 137.123,238.147 137.207,238.722 136.921 C 239.862 136.355,239.258 135.880,237.250 135.762 C 231.979 135.453,231.607 134.910,231.163 126.889 C 230.948 122.992,230.947 82.837,231.162 80.432 C 231.490 76.767,232.345 75.760,235.305 75.547 C 236.908 75.432,237.270 75.185,236.837 74.500 C 236.654 74.210,218.446 74.081,217.936 74.366 M338.766 74.368 C 337.817 74.899,338.584 75.500,340.211 75.500 C 343.447 75.500,345.002 76.779,345.340 79.718 C 345.535 81.412,345.537 127.012,345.342 129.583 C 344.986 134.284,344.297 135.360,341.409 135.722 C 339.699 135.936,339.220 136.286,339.818 136.885 C 340.054 137.121,358.676 137.195,359.468 136.963 C 360.590 136.634,360.159 135.939,358.750 135.807 C 355.486 135.502,354.971 135.378,354.277 134.733 C 353.642 134.142,353.235 133.138,353.101 131.831 C 353.040 131.236,352.952 130.525,352.905 130.250 C 352.523 128.018,352.361 105.000,352.728 105.000 C 352.877 105.000,353.001 105.056,353.003 105.125 C 353.004 105.194,353.236 105.513,353.517 105.833 C 355.263 107.824,355.874 108.500,356.926 109.606 C 357.573 110.286,358.081 110.863,358.057 110.888 C 358.032 110.912,358.392 111.342,358.857 111.841 C 359.321 112.341,360.061 113.139,360.500 113.615 C 360.939 114.091,361.350 114.428,361.413 114.365 C 361.476 114.302,361.503 114.331,361.472 114.431 C 361.417 114.611,362.008 115.345,363.473 116.917 C 363.900 117.375,365.225 118.799,366.417 120.081 C 378.040 132.586,382.081 135.899,386.762 136.763 C 388.497 137.083,398.350 137.308,399.333 137.050 C 400.500 136.744,400.169 135.841,398.890 135.836 C 394.863 135.821,391.022 133.755,384.833 128.275 C 382.906 126.569,366.782 110.516,364.050 107.583 C 363.537 107.033,362.108 105.547,360.874 104.281 L 358.630 101.979 359.940 100.632 C 363.192 97.289,378.859 81.870,380.861 80.044 C 383.731 77.424,387.681 75.500,390.188 75.500 C 391.444 75.500,392.062 74.808,391.208 74.358 C 390.752 74.117,375.064 74.202,374.820 74.447 C 374.531 74.736,374.741 75.111,375.366 75.426 C 376.646 76.069,376.862 77.209,375.967 78.592 C 375.673 79.046,375.448 79.473,375.467 79.542 C 375.485 79.610,375.442 79.648,375.370 79.625 C 375.299 79.602,374.755 80.100,374.162 80.731 C 372.306 82.706,371.402 83.652,368.089 87.083 C 366.318 88.917,364.468 90.837,363.977 91.352 C 358.488 97.096,356.590 99.068,354.701 100.993 L 352.485 103.250 352.563 91.750 C 352.645 79.681,352.686 78.704,353.165 77.587 C 353.712 76.311,355.208 75.500,357.017 75.500 C 358.233 75.500,358.865 74.864,358.125 74.385 C 357.837 74.199,339.098 74.182,338.766 74.368 M73.008 86.795 C 73.207 87.320,73.770 88.912,74.258 90.333 C 76.261 96.158,77.194 98.749,77.363 98.952 C 77.461 99.070,77.498 99.167,77.445 99.167 C 77.350 99.167,79.925 106.711,80.649 108.553 C 81.046 109.563,81.568 109.500,72.760 109.500 C 68.038 109.500,64.647 109.436,64.592 109.347 C 64.540 109.263,65.026 107.594,65.672 105.639 C 66.319 103.683,66.865 101.971,66.887 101.833 C 66.909 101.696,66.971 101.508,67.026 101.417 C 67.080 101.325,67.467 100.200,67.885 98.917 C 72.808 83.800,72.314 84.969,73.008 86.795 M287.115 87.105 C 287.346 87.735,287.860 89.188,288.257 90.333 C 288.654 91.479,289.478 93.842,290.088 95.583 C 290.698 97.325,291.259 98.938,291.335 99.167 C 291.410 99.396,291.862 100.671,292.339 102.000 C 292.815 103.329,293.302 104.717,293.420 105.083 C 293.537 105.450,293.904 106.490,294.234 107.395 C 294.563 108.300,294.833 109.143,294.833 109.270 C 294.833 109.543,278.761 109.620,278.592 109.348 C 278.541 109.264,279.442 106.321,280.596 102.806 C 281.750 99.292,283.332 94.467,284.112 92.083 C 285.552 87.683,286.111 86.059,286.278 85.788 C 286.436 85.532,286.674 85.908,287.115 87.105 M12.125 115.542 C 12.100 119.415,12.080 116.246,12.080 108.500 C 12.080 100.754,12.100 97.585,12.125 101.458 C 12.150 105.331,12.150 111.669,12.125 115.542 " stroke="none" fill="#042c4c" fill-rule="evenodd"></path><path id="path4" d="" stroke="none" fill="#409044" fill-rule="evenodd"></path><path id="path5" d="" stroke="none" fill="#402c6c" fill-rule="evenodd"></path><path id="path6" d="" stroke="none" fill="#442c28" fill-rule="evenodd"></path><path id="path7" d="M12.080 108.500 C 12.080 116.246,12.100 119.415,12.125 115.542 C 12.150 111.669,12.150 105.331,12.125 101.458 C 12.100 97.585,12.080 100.754,12.080 108.500 M68.197 112.625 C 70.642 112.651,74.692 112.651,77.197 112.625 C 79.701 112.599,77.700 112.578,72.750 112.578 C 67.800 112.578,65.751 112.599,68.197 112.625 M282.197 112.625 C 284.642 112.651,288.692 112.651,291.197 112.625 C 293.701 112.599,291.700 112.578,286.750 112.578 C 281.800 112.578,279.751 112.599,282.197 112.625 " stroke="none" fill="#042c50" fill-rule="evenodd"></path><path id="path8" d="M12.080 108.500 C 12.080 116.246,12.100 119.415,12.125 115.542 C 12.150 111.669,12.150 105.331,12.125 101.458 C 12.100 97.585,12.080 100.754,12.080 108.500 M68.197 112.625 C 70.642 112.651,74.692 112.651,77.197 112.625 C 79.701 112.599,77.700 112.578,72.750 112.578 C 67.800 112.578,65.751 112.599,68.197 112.625 M282.197 112.625 C 284.642 112.651,288.692 112.651,291.197 112.625 C 293.701 112.599,291.700 112.578,286.750 112.578 C 281.800 112.578,279.751 112.599,282.197 112.625 " stroke="none" fill="#042c50" fill-rule="evenodd"></path></g></svg>