<?xml version="1.0" encoding="UTF-8"?>
<svg width="148px" height="39px" viewBox="0 0 148 39" version="1.1" xmlns="http://www.w3.org/2000/svg" xmlns:xlink="http://www.w3.org/1999/xlink">
    <!-- Generator: sketchtool 50.2 (55047) - http://www.bohemiancoding.com/sketch -->
    <title>EECF04E5-4F6F-49D1-B1E2-AC49E438EC97@svg</title>
    <desc>Created with sketchtool.</desc>
    <defs>
        <linearGradient x1="1.33183673%" y1="121.410345%" x2="63.8167347%" y2="28.2517241%" id="linearGradient-1">
            <stop stop-color="#F0EFF0" offset="41.81%"></stop>
            <stop stop-color="#CFD1D2" offset="100%"></stop>
        </linearGradient>
        <linearGradient x1="2.43877551%" y1="48.9862069%" x2="98.0738776%" y2="48.9862069%" id="linearGradient-2">
            <stop stop-color="#FAEC41" offset="0%"></stop>
            <stop stop-color="#F7CD36" offset="18.01%"></stop>
            <stop stop-color="#F5B22D" offset="37.57%"></stop>
            <stop stop-color="#F39F26" offset="57.58%"></stop>
            <stop stop-color="#F29422" offset="78.12%"></stop>
            <stop stop-color="#F29021" offset="100%"></stop>
        </linearGradient>
        <linearGradient x1="-41.7706122%" y1="59.7241379%" x2="71.2477551%" y2="48.0793103%" id="linearGradient-3">
            <stop stop-color="#E31469" offset="25.18%"></stop>
            <stop stop-color="#DF1467" offset="26.73%"></stop>
            <stop stop-color="#BD1459" offset="40.65%"></stop>
            <stop stop-color="#A2154E" offset="54.88%"></stop>
            <stop stop-color="#8F1546" offset="69.34%"></stop>
            <stop stop-color="#841542" offset="84.19%"></stop>
            <stop stop-color="#801540" offset="100%"></stop>
        </linearGradient>
    </defs>
    <g id="Page-1" stroke="none" stroke-width="1" fill="none" fill-rule="evenodd">
        <g id="Case-study" transform="translate(-146.000000, -42.000000)" fill-rule="nonzero">
            <g id="top-nav">
                <g id="logo_5_" transform="translate(146.000000, 42.000000)">
                    <g id="Group" transform="translate(47.000000, 9.000000)" fill="#221F1F">
                        <path d="M19.2288462,10.65625 C16.5096154,10.26875 14.1788462,10.26875 12.4307692,10.26875 C10.4884615,10.26875 8.15769231,10.4625 8.15769231,12.7875 C8.15769231,13.95 8.93461538,14.3375 11.0711538,15.30625 L12.8192308,16.08125 C16.7038462,17.825 18.2576923,19.18125 18.2576923,22.475 C18.2576923,27.70625 14.1788462,29.8375 7.96346154,29.8375 C4.85576923,29.8375 1.35961538,29.25625 0.582692308,29.0625 L1.16538462,25.575 C3.10769231,25.76875 5.24423077,25.9625 8.35192308,25.9625 C10.8769231,25.9625 13.0134615,25.575 13.0134615,23.25 C13.0134615,21.89375 12.4307692,21.50625 9.71153846,20.34375 L8.15769231,19.7625 C4.66153846,18.2125 3.10769231,16.46875 3.10769231,13.36875 C3.10769231,7.75 7.76923077,6.5875 12.625,6.5875 C15.9269231,6.5875 18.6461538,6.975 20.2,7.3625 L19.2288462,10.65625 Z" id="Shape"></path>
                        <path d="M40.7884615,19.56875 L25.8326923,19.56875 C25.6384615,20.73125 25.4442308,21.50625 25.4442308,22.0875 C25.4442308,24.21875 26.6096154,25.38125 30.6884615,25.38125 C33.0192308,25.38125 35.9326923,25.1875 38.8461538,24.8 L38.2634615,28.675 C36.5153846,29.0625 33.4076923,29.64375 29.7173077,29.64375 C23.3076923,29.64375 20.3942308,27.125 20.3942308,21.89375 C20.3942308,20.73125 20.5884615,19.375 20.7826923,18.01875 L20.9769231,16.6625 C22.5307692,9.3 26.6096154,6.2 32.6307692,6.2 C38.4576923,6.2 41.3711538,9.10625 41.3711538,14.14375 C41.5653846,15.69375 41.1769231,17.4375 40.7884615,19.56875 Z M32.4365385,10.4625 C28.3576923,10.4625 26.9980769,13.36875 26.6096154,15.8875 L26.6096154,16.275 L36.3211538,16.275 C36.5153846,15.5 36.5153846,14.725 36.5153846,14.14375 C36.5153846,12.0125 35.7384615,10.4625 32.4365385,10.4625 Z" id="Shape"></path>
                        <path d="M63.5134615,15.5 L61.1826923,29.0625 L55.9384615,29.0625 L58.4634615,14.91875 C58.6576923,14.14375 58.6576923,13.36875 58.6576923,12.7875 C58.6576923,11.2375 57.8807692,10.4625 55.9384615,10.4625 C54.1903846,10.4625 52.2480769,10.85 49.9173077,12.0125 L47.0038462,28.86875 L41.7596154,28.86875 L45.6442308,6.5875 L50.6942308,6.5875 L50.5,8.33125 C53.025,6.78125 55.7442308,6.00625 57.8807692,6.00625 C62.5423077,6.00625 63.9019231,8.525 63.9019231,11.81875 C63.9019231,12.98125 63.7076923,14.3375 63.5134615,15.5 Z" id="Shape"></path>
                        <path d="M80.2173077,10.85 L74.7788462,10.85 L72.6423077,22.8625 C72.4480769,23.6375 72.4480769,24.025 72.4480769,24.4125 C72.4480769,25.1875 72.8365385,25.575 74.1961538,25.575 C75.3615385,25.575 76.9153846,25.575 77.4980769,25.38125 L76.9153846,28.86875 C76.3326923,29.0625 74.3903846,29.45 72.2538462,29.45 C68.5634615,29.45 67.0096154,27.9 67.0096154,24.8 C67.0096154,24.21875 67.0096154,23.44375 67.2038462,22.66875 L69.3403846,10.85 L65.2615385,10.4625 L65.8442308,6.5875 L69.9230769,6.5875 L70.8942308,0.96875 L76.1384615,0.96875 L75.1673077,6.5875 L80.6057692,6.5875 L80.2173077,10.85 Z" id="Shape"></path>
                        <path d="M100.028846,19.56875 L85.0730769,19.56875 C84.8788462,20.73125 84.6846154,21.50625 84.6846154,22.0875 C84.6846154,24.21875 85.85,25.38125 89.9288462,25.38125 C92.2596154,25.38125 95.1730769,25.1875 98.0865385,24.8 L97.5038462,28.675 C95.7557692,29.0625 92.6480769,29.64375 88.9576923,29.64375 C82.5480769,29.64375 79.6346154,27.125 79.6346154,21.89375 C79.6346154,20.73125 79.8288462,19.375 80.0230769,18.01875 L80.2173077,16.6625 C81.7711538,9.3 85.85,6.2 91.8711538,6.2 C97.6980769,6.2 100.611538,9.10625 100.611538,14.14375 C100.611538,15.69375 100.417308,17.4375 100.028846,19.56875 Z M91.4826923,10.4625 C87.4038462,10.4625 86.0442308,13.36875 85.6557692,15.8875 L85.6557692,16.275 L95.3673077,16.275 C95.5615385,15.5 95.5615385,14.725 95.5615385,14.14375 C95.5615385,12.0125 94.7846154,10.4625 91.4826923,10.4625 Z" id="Shape"></path>
                    </g>
                    <g id="Group">
                        <path d="M59.7485681,0.26 C57.4131192,0.26 53.9099458,1.52 51.7691176,3.2 L44.9573916,8.38 L77.8482972,8.38 C80.1837461,8.38 83.6869195,7.12 85.8277477,5.44 L92.6394737,0.26 L59.7485681,0.26 Z" id="Shape" fill="url(#linearGradient-1)"></path>
                        <path d="M36.5886997,4.74 C34.2532508,4.74 30.7500774,6 28.6092492,7.68 L21.7975232,12.86 L54.6884288,12.86 C57.0238777,12.86 60.5270511,11.6 62.6678793,9.92 L69.4796053,4.74 L36.5886997,4.74 Z" id="Shape" fill="url(#linearGradient-2)"></path>
                        <path d="M14.7911765,8.66 C12.4557276,8.66 8.95255418,9.92 6.81172601,11.6 L0,16.78 L32.8909056,16.78 C35.2263545,16.78 38.7295279,15.52 40.870356,13.84 L47.682082,8.66 L14.7911765,8.66 Z" id="Shape" fill="url(#linearGradient-3)"></path>
                    </g>
                </g>
            </g>
        </g>
    </g>
</svg>